<mxfile host="app.diagrams.net" agent="Mozilla/5.0 (Windows NT 10.0; Win64; x64) AppleWebKit/537.36 (KHTML, like Gecko) Chrome/140.0.0.0 Safari/537.36" version="28.2.5">
  <diagram name="หน้า-1" id="JZn4vNDWx43Bu2rgVOUE">
    <mxGraphModel dx="3700" dy="1651" grid="1" gridSize="10" guides="1" tooltips="1" connect="1" arrows="1" fold="1" page="1" pageScale="1" pageWidth="827" pageHeight="1169" math="0" shadow="0">
      <root>
        <mxCell id="0" />
        <mxCell id="1" parent="0" />
        <mxCell id="main-0" value="&lt;b&gt;Main Function&lt;/b&gt;" style="text;html=1;strokeColor=none;fillColor=none;align=center;verticalAlign=middle;whiteSpace=wrap;rounded=0;fontSize=16;" vertex="1" parent="1">
          <mxGeometry x="150" y="5" width="120" height="30" as="geometry" />
        </mxCell>
        <mxCell id="addBook-0" value="&lt;b&gt;Function: addBook&lt;/b&gt;" style="text;html=1;strokeColor=none;fillColor=none;align=center;verticalAlign=middle;whiteSpace=wrap;rounded=0;fontSize=16;" vertex="1" parent="1">
          <mxGeometry x="670" y="10" width="180" height="30" as="geometry" />
        </mxCell>
        <mxCell id="jB7fEfMnyyOdDuhdZeWz-60" value="" style="edgeStyle=orthogonalEdgeStyle;rounded=0;orthogonalLoop=1;jettySize=auto;html=1;" edge="1" parent="1" target="jB7fEfMnyyOdDuhdZeWz-58">
          <mxGeometry relative="1" as="geometry">
            <mxPoint x="960" y="519.9999999999998" as="sourcePoint" />
          </mxGeometry>
        </mxCell>
        <mxCell id="searchBook-0" value="&lt;b&gt;Function: searchBook&lt;/b&gt;" style="text;html=1;strokeColor=none;fillColor=none;align=center;verticalAlign=middle;whiteSpace=wrap;rounded=0;fontSize=16;" vertex="1" parent="1">
          <mxGeometry x="1160" y="10" width="200" height="30" as="geometry" />
        </mxCell>
        <mxCell id="displayBooks-0" value="&lt;b&gt;Function: displayBooks&lt;/b&gt;" style="text;html=1;strokeColor=none;fillColor=none;align=center;verticalAlign=middle;whiteSpace=wrap;rounded=0;fontSize=16;" vertex="1" parent="1">
          <mxGeometry x="1760" y="5" width="200" height="30" as="geometry" />
        </mxCell>
        <mxCell id="jB7fEfMnyyOdDuhdZeWz-3" value="" style="edgeStyle=orthogonalEdgeStyle;rounded=0;orthogonalLoop=1;jettySize=auto;html=1;" edge="1" parent="1" source="jB7fEfMnyyOdDuhdZeWz-1" target="jB7fEfMnyyOdDuhdZeWz-2">
          <mxGeometry relative="1" as="geometry" />
        </mxCell>
        <mxCell id="jB7fEfMnyyOdDuhdZeWz-1" value="Start" style="ellipse;whiteSpace=wrap;html=1;" vertex="1" parent="1">
          <mxGeometry x="300" width="120" height="40" as="geometry" />
        </mxCell>
        <mxCell id="jB7fEfMnyyOdDuhdZeWz-32" value="" style="edgeStyle=orthogonalEdgeStyle;rounded=0;orthogonalLoop=1;jettySize=auto;html=1;" edge="1" parent="1" source="jB7fEfMnyyOdDuhdZeWz-2" target="jB7fEfMnyyOdDuhdZeWz-31">
          <mxGeometry relative="1" as="geometry" />
        </mxCell>
        <mxCell id="jB7fEfMnyyOdDuhdZeWz-2" value="ประกาศตัวแปร choice, count = 0, books[50], searchbook[50]" style="rounded=0;whiteSpace=wrap;html=1;" vertex="1" parent="1">
          <mxGeometry x="240" y="80" width="240" height="40" as="geometry" />
        </mxCell>
        <mxCell id="jB7fEfMnyyOdDuhdZeWz-22" value="" style="edgeStyle=orthogonalEdgeStyle;rounded=0;orthogonalLoop=1;jettySize=auto;html=1;" edge="1" parent="1" source="jB7fEfMnyyOdDuhdZeWz-4" target="jB7fEfMnyyOdDuhdZeWz-7">
          <mxGeometry relative="1" as="geometry" />
        </mxCell>
        <mxCell id="jB7fEfMnyyOdDuhdZeWz-4" value="แสดงเมนู&lt;br&gt;1. เพิ่มหนังสือใหม่&lt;br&gt;2. ค้นหาหนังสือ&lt;br&gt;3. แสดงหนังสือทั้งหมด&lt;br&gt;4. ออกจากโปรแกรม" style="shape=parallelogram;perimeter=parallelogramPerimeter;whiteSpace=wrap;html=1;fixedSize=1;" vertex="1" parent="1">
          <mxGeometry x="240" y="200" width="240" height="80" as="geometry" />
        </mxCell>
        <mxCell id="jB7fEfMnyyOdDuhdZeWz-21" value="" style="edgeStyle=orthogonalEdgeStyle;rounded=0;orthogonalLoop=1;jettySize=auto;html=1;" edge="1" parent="1" source="jB7fEfMnyyOdDuhdZeWz-7" target="jB7fEfMnyyOdDuhdZeWz-8">
          <mxGeometry relative="1" as="geometry" />
        </mxCell>
        <mxCell id="jB7fEfMnyyOdDuhdZeWz-7" value="รับค่า choice" style="shape=parallelogram;perimeter=parallelogramPerimeter;whiteSpace=wrap;html=1;fixedSize=1;" vertex="1" parent="1">
          <mxGeometry x="300" y="320" width="120" height="40" as="geometry" />
        </mxCell>
        <mxCell id="jB7fEfMnyyOdDuhdZeWz-10" value="" style="edgeStyle=orthogonalEdgeStyle;rounded=0;orthogonalLoop=1;jettySize=auto;html=1;" edge="1" parent="1" source="jB7fEfMnyyOdDuhdZeWz-8" target="jB7fEfMnyyOdDuhdZeWz-9">
          <mxGeometry relative="1" as="geometry" />
        </mxCell>
        <mxCell id="jB7fEfMnyyOdDuhdZeWz-19" value="" style="edgeStyle=orthogonalEdgeStyle;rounded=0;orthogonalLoop=1;jettySize=auto;html=1;" edge="1" parent="1" source="jB7fEfMnyyOdDuhdZeWz-8" target="jB7fEfMnyyOdDuhdZeWz-11">
          <mxGeometry relative="1" as="geometry" />
        </mxCell>
        <mxCell id="jB7fEfMnyyOdDuhdZeWz-8" value="choice == 1 ?" style="rhombus;whiteSpace=wrap;html=1;" vertex="1" parent="1">
          <mxGeometry x="320" y="400" width="80" height="80" as="geometry" />
        </mxCell>
        <mxCell id="jB7fEfMnyyOdDuhdZeWz-38" style="edgeStyle=orthogonalEdgeStyle;rounded=0;orthogonalLoop=1;jettySize=auto;html=1;entryX=0.5;entryY=0;entryDx=0;entryDy=0;" edge="1" parent="1" source="jB7fEfMnyyOdDuhdZeWz-9" target="jB7fEfMnyyOdDuhdZeWz-39">
          <mxGeometry relative="1" as="geometry">
            <mxPoint x="830" y="500" as="targetPoint" />
          </mxGeometry>
        </mxCell>
        <mxCell id="jB7fEfMnyyOdDuhdZeWz-9" value="เรียกใช้ฟังก์ชัน addBook" style="shape=process;whiteSpace=wrap;html=1;backgroundOutline=1;" vertex="1" parent="1">
          <mxGeometry x="600" y="420" width="120" height="40" as="geometry" />
        </mxCell>
        <mxCell id="jB7fEfMnyyOdDuhdZeWz-14" value="" style="edgeStyle=orthogonalEdgeStyle;rounded=0;orthogonalLoop=1;jettySize=auto;html=1;" edge="1" parent="1" source="jB7fEfMnyyOdDuhdZeWz-11" target="jB7fEfMnyyOdDuhdZeWz-13">
          <mxGeometry relative="1" as="geometry" />
        </mxCell>
        <mxCell id="jB7fEfMnyyOdDuhdZeWz-20" value="" style="edgeStyle=orthogonalEdgeStyle;rounded=0;orthogonalLoop=1;jettySize=auto;html=1;" edge="1" parent="1" source="jB7fEfMnyyOdDuhdZeWz-11" target="jB7fEfMnyyOdDuhdZeWz-18">
          <mxGeometry relative="1" as="geometry" />
        </mxCell>
        <mxCell id="jB7fEfMnyyOdDuhdZeWz-11" value="choice == 2 ?" style="rhombus;whiteSpace=wrap;html=1;" vertex="1" parent="1">
          <mxGeometry x="320" y="520" width="80" height="80" as="geometry" />
        </mxCell>
        <mxCell id="jB7fEfMnyyOdDuhdZeWz-17" value="" style="edgeStyle=orthogonalEdgeStyle;rounded=0;orthogonalLoop=1;jettySize=auto;html=1;" edge="1" parent="1" source="jB7fEfMnyyOdDuhdZeWz-13" target="jB7fEfMnyyOdDuhdZeWz-16">
          <mxGeometry relative="1" as="geometry" />
        </mxCell>
        <mxCell id="jB7fEfMnyyOdDuhdZeWz-13" value="รับค่าชื่อหนังสือที่ต้องการค้นหา" style="shape=parallelogram;perimeter=parallelogramPerimeter;whiteSpace=wrap;html=1;fixedSize=1;" vertex="1" parent="1">
          <mxGeometry x="440" y="540" width="120" height="40" as="geometry" />
        </mxCell>
        <mxCell id="jB7fEfMnyyOdDuhdZeWz-40" value="" style="edgeStyle=orthogonalEdgeStyle;rounded=0;orthogonalLoop=1;jettySize=auto;html=1;" edge="1" parent="1" source="jB7fEfMnyyOdDuhdZeWz-16" target="jB7fEfMnyyOdDuhdZeWz-39">
          <mxGeometry relative="1" as="geometry" />
        </mxCell>
        <mxCell id="jB7fEfMnyyOdDuhdZeWz-16" value="เรียกใช้ฟังก์ชัน searchBook" style="shape=process;whiteSpace=wrap;html=1;backgroundOutline=1;" vertex="1" parent="1">
          <mxGeometry x="600" y="540" width="120" height="40" as="geometry" />
        </mxCell>
        <mxCell id="jB7fEfMnyyOdDuhdZeWz-25" value="" style="edgeStyle=orthogonalEdgeStyle;rounded=0;orthogonalLoop=1;jettySize=auto;html=1;" edge="1" parent="1" source="jB7fEfMnyyOdDuhdZeWz-18" target="jB7fEfMnyyOdDuhdZeWz-24">
          <mxGeometry relative="1" as="geometry" />
        </mxCell>
        <mxCell id="jB7fEfMnyyOdDuhdZeWz-26" style="edgeStyle=orthogonalEdgeStyle;rounded=0;orthogonalLoop=1;jettySize=auto;html=1;entryX=0;entryY=0.5;entryDx=0;entryDy=0;" edge="1" parent="1" source="jB7fEfMnyyOdDuhdZeWz-18" target="jB7fEfMnyyOdDuhdZeWz-23">
          <mxGeometry relative="1" as="geometry" />
        </mxCell>
        <mxCell id="jB7fEfMnyyOdDuhdZeWz-18" value="choice == 3 ?" style="rhombus;whiteSpace=wrap;html=1;" vertex="1" parent="1">
          <mxGeometry x="320" y="640" width="80" height="80" as="geometry" />
        </mxCell>
        <mxCell id="jB7fEfMnyyOdDuhdZeWz-42" value="" style="edgeStyle=orthogonalEdgeStyle;rounded=0;orthogonalLoop=1;jettySize=auto;html=1;" edge="1" parent="1" source="jB7fEfMnyyOdDuhdZeWz-23" target="jB7fEfMnyyOdDuhdZeWz-41">
          <mxGeometry relative="1" as="geometry" />
        </mxCell>
        <mxCell id="jB7fEfMnyyOdDuhdZeWz-23" value="เรียกใช้ฟังก์ชัน displayBooks" style="shape=process;whiteSpace=wrap;html=1;backgroundOutline=1;" vertex="1" parent="1">
          <mxGeometry x="600" y="660" width="120" height="40" as="geometry" />
        </mxCell>
        <mxCell id="jB7fEfMnyyOdDuhdZeWz-30" style="edgeStyle=orthogonalEdgeStyle;rounded=0;orthogonalLoop=1;jettySize=auto;html=1;entryX=0;entryY=0.5;entryDx=0;entryDy=0;" edge="1" parent="1" source="jB7fEfMnyyOdDuhdZeWz-24" target="jB7fEfMnyyOdDuhdZeWz-31">
          <mxGeometry relative="1" as="geometry">
            <mxPoint x="200" y="160" as="targetPoint" />
            <Array as="points">
              <mxPoint x="200" y="800" />
              <mxPoint x="200" y="155" />
            </Array>
          </mxGeometry>
        </mxCell>
        <mxCell id="jB7fEfMnyyOdDuhdZeWz-36" value="" style="edgeStyle=orthogonalEdgeStyle;rounded=0;orthogonalLoop=1;jettySize=auto;html=1;" edge="1" parent="1" source="jB7fEfMnyyOdDuhdZeWz-24" target="jB7fEfMnyyOdDuhdZeWz-34">
          <mxGeometry relative="1" as="geometry" />
        </mxCell>
        <mxCell id="jB7fEfMnyyOdDuhdZeWz-24" value="choice == 4 ?" style="rhombus;whiteSpace=wrap;html=1;" vertex="1" parent="1">
          <mxGeometry x="320" y="760" width="80" height="80" as="geometry" />
        </mxCell>
        <mxCell id="jB7fEfMnyyOdDuhdZeWz-28" value="Stop" style="ellipse;whiteSpace=wrap;html=1;" vertex="1" parent="1">
          <mxGeometry x="300" y="920" width="120" height="40" as="geometry" />
        </mxCell>
        <mxCell id="jB7fEfMnyyOdDuhdZeWz-33" value="" style="edgeStyle=orthogonalEdgeStyle;rounded=0;orthogonalLoop=1;jettySize=auto;html=1;" edge="1" parent="1" source="jB7fEfMnyyOdDuhdZeWz-31" target="jB7fEfMnyyOdDuhdZeWz-4">
          <mxGeometry relative="1" as="geometry" />
        </mxCell>
        <mxCell id="jB7fEfMnyyOdDuhdZeWz-31" value="" style="ellipse;whiteSpace=wrap;html=1;aspect=fixed;" vertex="1" parent="1">
          <mxGeometry x="355" y="150" width="10" height="10" as="geometry" />
        </mxCell>
        <mxCell id="jB7fEfMnyyOdDuhdZeWz-37" value="" style="edgeStyle=orthogonalEdgeStyle;rounded=0;orthogonalLoop=1;jettySize=auto;html=1;" edge="1" parent="1" source="jB7fEfMnyyOdDuhdZeWz-34" target="jB7fEfMnyyOdDuhdZeWz-28">
          <mxGeometry relative="1" as="geometry" />
        </mxCell>
        <mxCell id="jB7fEfMnyyOdDuhdZeWz-34" value="" style="ellipse;whiteSpace=wrap;html=1;aspect=fixed;" vertex="1" parent="1">
          <mxGeometry x="355" y="880" width="10" height="10" as="geometry" />
        </mxCell>
        <mxCell id="jB7fEfMnyyOdDuhdZeWz-43" value="" style="edgeStyle=orthogonalEdgeStyle;rounded=0;orthogonalLoop=1;jettySize=auto;html=1;" edge="1" parent="1" source="jB7fEfMnyyOdDuhdZeWz-39" target="jB7fEfMnyyOdDuhdZeWz-41">
          <mxGeometry relative="1" as="geometry" />
        </mxCell>
        <mxCell id="jB7fEfMnyyOdDuhdZeWz-39" value="" style="ellipse;whiteSpace=wrap;html=1;aspect=fixed;" vertex="1" parent="1">
          <mxGeometry x="760" y="555" width="10" height="10" as="geometry" />
        </mxCell>
        <mxCell id="jB7fEfMnyyOdDuhdZeWz-44" style="edgeStyle=orthogonalEdgeStyle;rounded=0;orthogonalLoop=1;jettySize=auto;html=1;entryX=1;entryY=0.5;entryDx=0;entryDy=0;" edge="1" parent="1" source="jB7fEfMnyyOdDuhdZeWz-41" target="jB7fEfMnyyOdDuhdZeWz-34">
          <mxGeometry relative="1" as="geometry">
            <Array as="points">
              <mxPoint x="765" y="885" />
            </Array>
          </mxGeometry>
        </mxCell>
        <mxCell id="jB7fEfMnyyOdDuhdZeWz-41" value="" style="ellipse;whiteSpace=wrap;html=1;aspect=fixed;" vertex="1" parent="1">
          <mxGeometry x="760" y="675" width="10" height="10" as="geometry" />
        </mxCell>
        <mxCell id="jB7fEfMnyyOdDuhdZeWz-48" value="" style="edgeStyle=orthogonalEdgeStyle;rounded=0;orthogonalLoop=1;jettySize=auto;html=1;" edge="1" parent="1" source="jB7fEfMnyyOdDuhdZeWz-46" target="jB7fEfMnyyOdDuhdZeWz-47">
          <mxGeometry relative="1" as="geometry" />
        </mxCell>
        <mxCell id="jB7fEfMnyyOdDuhdZeWz-46" value="Start" style="ellipse;whiteSpace=wrap;html=1;" vertex="1" parent="1">
          <mxGeometry x="900" width="120" height="40" as="geometry" />
        </mxCell>
        <mxCell id="jB7fEfMnyyOdDuhdZeWz-51" value="" style="edgeStyle=orthogonalEdgeStyle;rounded=0;orthogonalLoop=1;jettySize=auto;html=1;" edge="1" parent="1" source="jB7fEfMnyyOdDuhdZeWz-47" target="jB7fEfMnyyOdDuhdZeWz-50">
          <mxGeometry relative="1" as="geometry" />
        </mxCell>
        <mxCell id="jB7fEfMnyyOdDuhdZeWz-47" value="รับค่า ID หนังสือ" style="shape=parallelogram;perimeter=parallelogramPerimeter;whiteSpace=wrap;html=1;fixedSize=1;" vertex="1" parent="1">
          <mxGeometry x="900" y="80" width="120" height="40" as="geometry" />
        </mxCell>
        <mxCell id="jB7fEfMnyyOdDuhdZeWz-53" value="" style="edgeStyle=orthogonalEdgeStyle;rounded=0;orthogonalLoop=1;jettySize=auto;html=1;" edge="1" parent="1" source="jB7fEfMnyyOdDuhdZeWz-50" target="jB7fEfMnyyOdDuhdZeWz-52">
          <mxGeometry relative="1" as="geometry" />
        </mxCell>
        <mxCell id="jB7fEfMnyyOdDuhdZeWz-50" value="รับค่าชื่อหนังสือ" style="shape=parallelogram;perimeter=parallelogramPerimeter;whiteSpace=wrap;html=1;fixedSize=1;" vertex="1" parent="1">
          <mxGeometry x="900" y="160" width="120" height="40" as="geometry" />
        </mxCell>
        <mxCell id="jB7fEfMnyyOdDuhdZeWz-55" value="" style="edgeStyle=orthogonalEdgeStyle;rounded=0;orthogonalLoop=1;jettySize=auto;html=1;" edge="1" parent="1" source="jB7fEfMnyyOdDuhdZeWz-52" target="jB7fEfMnyyOdDuhdZeWz-54">
          <mxGeometry relative="1" as="geometry" />
        </mxCell>
        <mxCell id="jB7fEfMnyyOdDuhdZeWz-52" value="รับค่าชื่อผู้แต่ง" style="shape=parallelogram;perimeter=parallelogramPerimeter;whiteSpace=wrap;html=1;fixedSize=1;" vertex="1" parent="1">
          <mxGeometry x="900" y="240" width="120" height="40" as="geometry" />
        </mxCell>
        <mxCell id="jB7fEfMnyyOdDuhdZeWz-57" value="" style="edgeStyle=orthogonalEdgeStyle;rounded=0;orthogonalLoop=1;jettySize=auto;html=1;" edge="1" parent="1" source="jB7fEfMnyyOdDuhdZeWz-54" target="jB7fEfMnyyOdDuhdZeWz-56">
          <mxGeometry relative="1" as="geometry" />
        </mxCell>
        <mxCell id="jB7fEfMnyyOdDuhdZeWz-54" value="รับค่าปีที่พิมพ์" style="shape=parallelogram;perimeter=parallelogramPerimeter;whiteSpace=wrap;html=1;fixedSize=1;" vertex="1" parent="1">
          <mxGeometry x="900" y="320" width="120" height="40" as="geometry" />
        </mxCell>
        <mxCell id="jB7fEfMnyyOdDuhdZeWz-59" value="" style="edgeStyle=orthogonalEdgeStyle;rounded=0;orthogonalLoop=1;jettySize=auto;html=1;" edge="1" parent="1" source="jB7fEfMnyyOdDuhdZeWz-56">
          <mxGeometry relative="1" as="geometry">
            <mxPoint x="960" y="479.9999999999998" as="targetPoint" />
          </mxGeometry>
        </mxCell>
        <mxCell id="jB7fEfMnyyOdDuhdZeWz-56" value="แสดงข้อความ &quot;Book added successfully!&quot;" style="shape=parallelogram;perimeter=parallelogramPerimeter;whiteSpace=wrap;html=1;fixedSize=1;" vertex="1" parent="1">
          <mxGeometry x="840" y="400" width="240" height="40" as="geometry" />
        </mxCell>
        <mxCell id="jB7fEfMnyyOdDuhdZeWz-58" value="Stop" style="ellipse;whiteSpace=wrap;html=1;" vertex="1" parent="1">
          <mxGeometry x="900" y="560" width="120" height="40" as="geometry" />
        </mxCell>
        <mxCell id="jB7fEfMnyyOdDuhdZeWz-63" value="" style="edgeStyle=orthogonalEdgeStyle;rounded=0;orthogonalLoop=1;jettySize=auto;html=1;" edge="1" parent="1" source="jB7fEfMnyyOdDuhdZeWz-61" target="jB7fEfMnyyOdDuhdZeWz-62">
          <mxGeometry relative="1" as="geometry" />
        </mxCell>
        <mxCell id="jB7fEfMnyyOdDuhdZeWz-61" value="Start" style="ellipse;whiteSpace=wrap;html=1;" vertex="1" parent="1">
          <mxGeometry x="1420" width="120" height="40" as="geometry" />
        </mxCell>
        <mxCell id="jB7fEfMnyyOdDuhdZeWz-65" value="" style="edgeStyle=orthogonalEdgeStyle;rounded=0;orthogonalLoop=1;jettySize=auto;html=1;" edge="1" parent="1" source="jB7fEfMnyyOdDuhdZeWz-62" target="jB7fEfMnyyOdDuhdZeWz-64">
          <mxGeometry relative="1" as="geometry" />
        </mxCell>
        <mxCell id="jB7fEfMnyyOdDuhdZeWz-62" value="ประกาศตัวแปร found = 0 , i" style="rounded=0;whiteSpace=wrap;html=1;" vertex="1" parent="1">
          <mxGeometry x="1400" y="80" width="160" height="40" as="geometry" />
        </mxCell>
        <mxCell id="jB7fEfMnyyOdDuhdZeWz-83" value="" style="edgeStyle=orthogonalEdgeStyle;rounded=0;orthogonalLoop=1;jettySize=auto;html=1;" edge="1" parent="1" source="jB7fEfMnyyOdDuhdZeWz-64" target="jB7fEfMnyyOdDuhdZeWz-82">
          <mxGeometry relative="1" as="geometry" />
        </mxCell>
        <mxCell id="jB7fEfMnyyOdDuhdZeWz-64" value="i = 0" style="rounded=0;whiteSpace=wrap;html=1;" vertex="1" parent="1">
          <mxGeometry x="1400" y="160" width="160" height="40" as="geometry" />
        </mxCell>
        <mxCell id="jB7fEfMnyyOdDuhdZeWz-67" value="count + 1" style="rounded=0;whiteSpace=wrap;html=1;" vertex="1" parent="1">
          <mxGeometry x="880" y="480" width="160" height="40" as="geometry" />
        </mxCell>
        <mxCell id="jB7fEfMnyyOdDuhdZeWz-70" value="" style="edgeStyle=orthogonalEdgeStyle;rounded=0;orthogonalLoop=1;jettySize=auto;html=1;" edge="1" parent="1" source="jB7fEfMnyyOdDuhdZeWz-68" target="jB7fEfMnyyOdDuhdZeWz-69">
          <mxGeometry relative="1" as="geometry" />
        </mxCell>
        <mxCell id="jB7fEfMnyyOdDuhdZeWz-87" style="edgeStyle=orthogonalEdgeStyle;rounded=0;orthogonalLoop=1;jettySize=auto;html=1;entryX=0.5;entryY=0;entryDx=0;entryDy=0;" edge="1" parent="1" source="jB7fEfMnyyOdDuhdZeWz-68" target="jB7fEfMnyyOdDuhdZeWz-89">
          <mxGeometry relative="1" as="geometry">
            <mxPoint x="1640" y="409.9999999999999" as="targetPoint" />
          </mxGeometry>
        </mxCell>
        <mxCell id="jB7fEfMnyyOdDuhdZeWz-68" value="i &amp;lt; count ?" style="rhombus;whiteSpace=wrap;html=1;" vertex="1" parent="1">
          <mxGeometry x="1440" y="280" width="80" height="80" as="geometry" />
        </mxCell>
        <mxCell id="jB7fEfMnyyOdDuhdZeWz-72" value="" style="edgeStyle=orthogonalEdgeStyle;rounded=0;orthogonalLoop=1;jettySize=auto;html=1;" edge="1" parent="1" source="jB7fEfMnyyOdDuhdZeWz-69" target="jB7fEfMnyyOdDuhdZeWz-71">
          <mxGeometry relative="1" as="geometry" />
        </mxCell>
        <mxCell id="jB7fEfMnyyOdDuhdZeWz-90" value="" style="edgeStyle=orthogonalEdgeStyle;rounded=0;orthogonalLoop=1;jettySize=auto;html=1;" edge="1" parent="1" source="jB7fEfMnyyOdDuhdZeWz-69" target="jB7fEfMnyyOdDuhdZeWz-89">
          <mxGeometry relative="1" as="geometry" />
        </mxCell>
        <mxCell id="jB7fEfMnyyOdDuhdZeWz-69" value="ชื่อหนังสือตรงกัน?" style="rhombus;whiteSpace=wrap;html=1;" vertex="1" parent="1">
          <mxGeometry x="1410" y="400" width="140" height="80" as="geometry" />
        </mxCell>
        <mxCell id="jB7fEfMnyyOdDuhdZeWz-74" value="" style="edgeStyle=orthogonalEdgeStyle;rounded=0;orthogonalLoop=1;jettySize=auto;html=1;" edge="1" parent="1" source="jB7fEfMnyyOdDuhdZeWz-71" target="jB7fEfMnyyOdDuhdZeWz-73">
          <mxGeometry relative="1" as="geometry" />
        </mxCell>
        <mxCell id="jB7fEfMnyyOdDuhdZeWz-71" value="แสดงข้อมูลหนังสือที่พบ" style="shape=parallelogram;perimeter=parallelogramPerimeter;whiteSpace=wrap;html=1;fixedSize=1;" vertex="1" parent="1">
          <mxGeometry x="1395" y="520" width="170" height="40" as="geometry" />
        </mxCell>
        <mxCell id="jB7fEfMnyyOdDuhdZeWz-81" value="" style="edgeStyle=orthogonalEdgeStyle;rounded=0;orthogonalLoop=1;jettySize=auto;html=1;" edge="1" parent="1" source="jB7fEfMnyyOdDuhdZeWz-73" target="jB7fEfMnyyOdDuhdZeWz-77">
          <mxGeometry relative="1" as="geometry" />
        </mxCell>
        <mxCell id="jB7fEfMnyyOdDuhdZeWz-73" value="found = 1" style="rounded=0;whiteSpace=wrap;html=1;" vertex="1" parent="1">
          <mxGeometry x="1400" y="600" width="160" height="40" as="geometry" />
        </mxCell>
        <mxCell id="jB7fEfMnyyOdDuhdZeWz-80" value="" style="edgeStyle=orthogonalEdgeStyle;rounded=0;orthogonalLoop=1;jettySize=auto;html=1;" edge="1" parent="1" source="jB7fEfMnyyOdDuhdZeWz-76" target="jB7fEfMnyyOdDuhdZeWz-79">
          <mxGeometry relative="1" as="geometry" />
        </mxCell>
        <mxCell id="jB7fEfMnyyOdDuhdZeWz-76" value="แสดงข้อความ &quot;Book not found.&quot;" style="shape=parallelogram;perimeter=parallelogramPerimeter;whiteSpace=wrap;html=1;fixedSize=1;" vertex="1" parent="1">
          <mxGeometry x="1377.5" y="840" width="205" height="40" as="geometry" />
        </mxCell>
        <mxCell id="jB7fEfMnyyOdDuhdZeWz-85" style="edgeStyle=orthogonalEdgeStyle;rounded=0;orthogonalLoop=1;jettySize=auto;html=1;entryX=0;entryY=0.5;entryDx=0;entryDy=0;" edge="1" parent="1" source="jB7fEfMnyyOdDuhdZeWz-77" target="jB7fEfMnyyOdDuhdZeWz-82">
          <mxGeometry relative="1" as="geometry">
            <Array as="points">
              <mxPoint x="1480" y="760" />
              <mxPoint x="1320" y="760" />
              <mxPoint x="1320" y="245" />
            </Array>
          </mxGeometry>
        </mxCell>
        <mxCell id="jB7fEfMnyyOdDuhdZeWz-77" value="i + 1" style="rounded=0;whiteSpace=wrap;html=1;" vertex="1" parent="1">
          <mxGeometry x="1400" y="680" width="160" height="40" as="geometry" />
        </mxCell>
        <mxCell id="jB7fEfMnyyOdDuhdZeWz-79" value="Stop" style="ellipse;whiteSpace=wrap;html=1;" vertex="1" parent="1">
          <mxGeometry x="1420" y="920" width="120" height="40" as="geometry" />
        </mxCell>
        <mxCell id="jB7fEfMnyyOdDuhdZeWz-84" value="" style="edgeStyle=orthogonalEdgeStyle;rounded=0;orthogonalLoop=1;jettySize=auto;html=1;" edge="1" parent="1" source="jB7fEfMnyyOdDuhdZeWz-82" target="jB7fEfMnyyOdDuhdZeWz-68">
          <mxGeometry relative="1" as="geometry" />
        </mxCell>
        <mxCell id="jB7fEfMnyyOdDuhdZeWz-82" value="" style="ellipse;whiteSpace=wrap;html=1;aspect=fixed;" vertex="1" parent="1">
          <mxGeometry x="1475" y="240" width="10" height="10" as="geometry" />
        </mxCell>
        <mxCell id="jB7fEfMnyyOdDuhdZeWz-91" style="edgeStyle=orthogonalEdgeStyle;rounded=0;orthogonalLoop=1;jettySize=auto;html=1;entryX=0.5;entryY=0;entryDx=0;entryDy=0;" edge="1" parent="1" source="jB7fEfMnyyOdDuhdZeWz-89">
          <mxGeometry relative="1" as="geometry">
            <mxPoint x="1480" y="840" as="targetPoint" />
            <Array as="points">
              <mxPoint x="1645" y="800" />
              <mxPoint x="1480" y="800" />
            </Array>
          </mxGeometry>
        </mxCell>
        <mxCell id="jB7fEfMnyyOdDuhdZeWz-89" value="" style="ellipse;whiteSpace=wrap;html=1;aspect=fixed;" vertex="1" parent="1">
          <mxGeometry x="1640" y="435" width="10" height="10" as="geometry" />
        </mxCell>
        <mxCell id="jB7fEfMnyyOdDuhdZeWz-96" value="" style="edgeStyle=orthogonalEdgeStyle;rounded=0;orthogonalLoop=1;jettySize=auto;html=1;" edge="1" parent="1" source="jB7fEfMnyyOdDuhdZeWz-94" target="jB7fEfMnyyOdDuhdZeWz-95">
          <mxGeometry relative="1" as="geometry" />
        </mxCell>
        <mxCell id="jB7fEfMnyyOdDuhdZeWz-94" value="Start" style="ellipse;whiteSpace=wrap;html=1;" vertex="1" parent="1">
          <mxGeometry x="2020" width="120" height="40" as="geometry" />
        </mxCell>
        <mxCell id="jB7fEfMnyyOdDuhdZeWz-99" value="" style="edgeStyle=orthogonalEdgeStyle;rounded=0;orthogonalLoop=1;jettySize=auto;html=1;" edge="1" parent="1" source="jB7fEfMnyyOdDuhdZeWz-95" target="jB7fEfMnyyOdDuhdZeWz-98">
          <mxGeometry relative="1" as="geometry" />
        </mxCell>
        <mxCell id="jB7fEfMnyyOdDuhdZeWz-95" value="i = 0" style="rounded=0;whiteSpace=wrap;html=1;" vertex="1" parent="1">
          <mxGeometry x="2000" y="80" width="160" height="40" as="geometry" />
        </mxCell>
        <mxCell id="jB7fEfMnyyOdDuhdZeWz-102" value="" style="edgeStyle=orthogonalEdgeStyle;rounded=0;orthogonalLoop=1;jettySize=auto;html=1;" edge="1" parent="1" source="jB7fEfMnyyOdDuhdZeWz-97" target="jB7fEfMnyyOdDuhdZeWz-101">
          <mxGeometry relative="1" as="geometry" />
        </mxCell>
        <mxCell id="jB7fEfMnyyOdDuhdZeWz-107" style="edgeStyle=orthogonalEdgeStyle;rounded=0;orthogonalLoop=1;jettySize=auto;html=1;entryX=0.5;entryY=0;entryDx=0;entryDy=0;" edge="1" parent="1" source="jB7fEfMnyyOdDuhdZeWz-97" target="jB7fEfMnyyOdDuhdZeWz-106">
          <mxGeometry relative="1" as="geometry">
            <Array as="points">
              <mxPoint x="2200" y="240" />
              <mxPoint x="2200" y="520" />
              <mxPoint x="2080" y="520" />
            </Array>
          </mxGeometry>
        </mxCell>
        <mxCell id="jB7fEfMnyyOdDuhdZeWz-97" value="i &amp;lt; count ?" style="rhombus;whiteSpace=wrap;html=1;" vertex="1" parent="1">
          <mxGeometry x="2040" y="200" width="80" height="80" as="geometry" />
        </mxCell>
        <mxCell id="jB7fEfMnyyOdDuhdZeWz-100" value="" style="edgeStyle=orthogonalEdgeStyle;rounded=0;orthogonalLoop=1;jettySize=auto;html=1;" edge="1" parent="1" source="jB7fEfMnyyOdDuhdZeWz-98" target="jB7fEfMnyyOdDuhdZeWz-97">
          <mxGeometry relative="1" as="geometry" />
        </mxCell>
        <mxCell id="jB7fEfMnyyOdDuhdZeWz-98" value="" style="ellipse;whiteSpace=wrap;html=1;aspect=fixed;" vertex="1" parent="1">
          <mxGeometry x="2075" y="160" width="10" height="10" as="geometry" />
        </mxCell>
        <mxCell id="jB7fEfMnyyOdDuhdZeWz-104" value="" style="edgeStyle=orthogonalEdgeStyle;rounded=0;orthogonalLoop=1;jettySize=auto;html=1;" edge="1" parent="1" source="jB7fEfMnyyOdDuhdZeWz-101" target="jB7fEfMnyyOdDuhdZeWz-103">
          <mxGeometry relative="1" as="geometry" />
        </mxCell>
        <mxCell id="jB7fEfMnyyOdDuhdZeWz-101" value="แสดงข้อมูลหนังสือ books[i]" style="shape=parallelogram;perimeter=parallelogramPerimeter;whiteSpace=wrap;html=1;fixedSize=1;" vertex="1" parent="1">
          <mxGeometry x="1995" y="320" width="170" height="40" as="geometry" />
        </mxCell>
        <mxCell id="jB7fEfMnyyOdDuhdZeWz-105" style="edgeStyle=orthogonalEdgeStyle;rounded=0;orthogonalLoop=1;jettySize=auto;html=1;entryX=0;entryY=0.5;entryDx=0;entryDy=0;" edge="1" parent="1" source="jB7fEfMnyyOdDuhdZeWz-103" target="jB7fEfMnyyOdDuhdZeWz-98">
          <mxGeometry relative="1" as="geometry">
            <Array as="points">
              <mxPoint x="2080" y="480" />
              <mxPoint x="1960" y="480" />
              <mxPoint x="1960" y="165" />
            </Array>
          </mxGeometry>
        </mxCell>
        <mxCell id="jB7fEfMnyyOdDuhdZeWz-103" value="i + 1" style="rounded=0;whiteSpace=wrap;html=1;" vertex="1" parent="1">
          <mxGeometry x="2000" y="400" width="160" height="40" as="geometry" />
        </mxCell>
        <mxCell id="jB7fEfMnyyOdDuhdZeWz-106" value="Stop" style="ellipse;whiteSpace=wrap;html=1;" vertex="1" parent="1">
          <mxGeometry x="2020" y="560" width="120" height="40" as="geometry" />
        </mxCell>
        <mxCell id="jB7fEfMnyyOdDuhdZeWz-108" value="TRUE" style="text;html=1;align=center;verticalAlign=middle;whiteSpace=wrap;rounded=0;" vertex="1" parent="1">
          <mxGeometry x="400" y="410" width="60" height="30" as="geometry" />
        </mxCell>
        <mxCell id="jB7fEfMnyyOdDuhdZeWz-109" value="FALSE" style="text;html=1;align=center;verticalAlign=middle;whiteSpace=wrap;rounded=0;" vertex="1" parent="1">
          <mxGeometry x="360" y="480" width="60" height="30" as="geometry" />
        </mxCell>
        <mxCell id="jB7fEfMnyyOdDuhdZeWz-110" value="TRUE" style="text;html=1;align=center;verticalAlign=middle;whiteSpace=wrap;rounded=0;" vertex="1" parent="1">
          <mxGeometry x="400" y="530" width="60" height="30" as="geometry" />
        </mxCell>
        <mxCell id="jB7fEfMnyyOdDuhdZeWz-111" value="FALSE" style="text;html=1;align=center;verticalAlign=middle;whiteSpace=wrap;rounded=0;" vertex="1" parent="1">
          <mxGeometry x="360" y="600" width="60" height="30" as="geometry" />
        </mxCell>
        <mxCell id="jB7fEfMnyyOdDuhdZeWz-112" value="TRUE" style="text;html=1;align=center;verticalAlign=middle;whiteSpace=wrap;rounded=0;" vertex="1" parent="1">
          <mxGeometry x="400" y="650" width="60" height="30" as="geometry" />
        </mxCell>
        <mxCell id="jB7fEfMnyyOdDuhdZeWz-113" value="FALSE" style="text;html=1;align=center;verticalAlign=middle;whiteSpace=wrap;rounded=0;" vertex="1" parent="1">
          <mxGeometry x="360" y="720" width="60" height="30" as="geometry" />
        </mxCell>
        <mxCell id="jB7fEfMnyyOdDuhdZeWz-114" value="TRUE" style="text;html=1;align=center;verticalAlign=middle;whiteSpace=wrap;rounded=0;" vertex="1" parent="1">
          <mxGeometry x="360" y="840" width="60" height="30" as="geometry" />
        </mxCell>
        <mxCell id="jB7fEfMnyyOdDuhdZeWz-115" value="FALSE" style="text;html=1;align=center;verticalAlign=middle;whiteSpace=wrap;rounded=0;" vertex="1" parent="1">
          <mxGeometry x="260" y="770" width="60" height="30" as="geometry" />
        </mxCell>
        <mxCell id="jB7fEfMnyyOdDuhdZeWz-116" value="TRUE" style="text;html=1;align=center;verticalAlign=middle;whiteSpace=wrap;rounded=0;" vertex="1" parent="1">
          <mxGeometry x="1480" y="360" width="60" height="30" as="geometry" />
        </mxCell>
        <mxCell id="jB7fEfMnyyOdDuhdZeWz-117" value="FALSE" style="text;html=1;align=center;verticalAlign=middle;whiteSpace=wrap;rounded=0;" vertex="1" parent="1">
          <mxGeometry x="1520" y="290" width="60" height="30" as="geometry" />
        </mxCell>
        <mxCell id="jB7fEfMnyyOdDuhdZeWz-118" value="TRUE" style="text;html=1;align=center;verticalAlign=middle;whiteSpace=wrap;rounded=0;" vertex="1" parent="1">
          <mxGeometry x="1480" y="480" width="60" height="30" as="geometry" />
        </mxCell>
        <mxCell id="jB7fEfMnyyOdDuhdZeWz-119" value="FALSE" style="text;html=1;align=center;verticalAlign=middle;whiteSpace=wrap;rounded=0;" vertex="1" parent="1">
          <mxGeometry x="1550" y="410" width="60" height="30" as="geometry" />
        </mxCell>
        <mxCell id="jB7fEfMnyyOdDuhdZeWz-120" value="TRUE" style="text;html=1;align=center;verticalAlign=middle;whiteSpace=wrap;rounded=0;" vertex="1" parent="1">
          <mxGeometry x="2080" y="280" width="60" height="30" as="geometry" />
        </mxCell>
        <mxCell id="jB7fEfMnyyOdDuhdZeWz-121" value="FALSE" style="text;html=1;align=center;verticalAlign=middle;whiteSpace=wrap;rounded=0;" vertex="1" parent="1">
          <mxGeometry x="2120" y="210" width="60" height="30" as="geometry" />
        </mxCell>
      </root>
    </mxGraphModel>
  </diagram>
</mxfile>
